<mxfile host="app.diagrams.net" modified="2024-07-03T14:37:29.705Z" agent="Mozilla/5.0 (Windows NT 10.0; Win64; x64) AppleWebKit/537.36 (KHTML, like Gecko) Chrome/126.0.0.0 Safari/537.36" version="24.6.2" etag="ytRJsnT_X6fJbp42F-tX" type="github">
  <diagram name="Page-1" id="J3GQ9ePf7XDHL5orWynU">
    <mxGraphModel>
      <root>
        <mxCell id="0" />
        <mxCell id="1" parent="0" />
      </root>
    </mxGraphModel>
  </diagram>
</mxfile>
